<svg width="38" height="26" viewBox="0 0 38 26" fill="none" xmlns="http://www.w3.org/2000/svg">
<path fill-rule="evenodd" clip-rule="evenodd" d="M23.6698 19.1299H37.1837C37.6337 19.1299 38 19.5272 38 20.0156V22.1081V22.8288V25.3956C38 25.7295 37.7508 26 37.4434 26C37.1359 26 36.8867 25.7295 36.8867 25.3956V23.4332H30.9103C30.6028 23.4332 30.3537 23.1627 30.3537 22.8288C30.3537 22.495 30.6028 22.2245 30.9103 22.2245H36.8867V22.1081V20.3387H23.6698V22.2245H28.644C28.9515 22.2245 29.2006 22.495 29.2006 22.8288C29.2006 23.1627 28.9515 23.4332 28.644 23.4332H23.6698V24.54C23.6698 25.1489 23.2122 25.6442 22.6496 25.6442H11.8349C5.30916 25.6442 0 19.8922 0 12.8221C0 5.75199 5.30916 0 11.8349 0C17.0478 0 21.484 3.67052 23.0581 8.75128H25.0704C25.5548 8.75128 25.9487 9.13581 26.0506 9.70825L26.8125 14.0052C26.8774 14.367 26.8109 14.702 26.6249 14.9471C26.4463 15.1824 26.174 15.312 25.8582 15.312H23.6698V19.1299ZM25.696 14.1033L24.9612 9.9599H23.3721C23.5665 10.8805 23.6696 11.8386 23.6696 12.8221V14.1033H25.696ZM1.12744 13.4265H3.15539L3.22828 13.427C3.24201 13.4271 3.25641 13.4273 3.2714 13.4273C3.42162 13.4273 3.6272 13.4122 3.79739 13.2245C3.98204 13.0209 3.97655 12.7793 3.97351 12.6495C3.97254 12.6075 3.97158 12.5641 3.97351 12.507C4.02791 10.8882 4.50306 9.33025 5.34767 8.00148C5.52231 7.72678 5.4587 7.35039 5.20569 7.16078C4.95275 6.97118 4.60593 7.04024 4.43136 7.31493C3.50882 8.76643 2.97193 10.4569 2.87203 12.2177H1.12744C1.40918 6.29358 5.80857 1.52861 11.278 1.22418V3.11355C9.52485 3.22918 7.86049 3.89099 6.4513 5.03539C6.20512 5.23523 6.1548 5.61404 6.33893 5.88133C6.44826 6.04007 6.61562 6.12371 6.78514 6.12371C6.90114 6.12371 7.01811 6.08455 7.11808 6.00333C8.40459 4.9586 9.93416 4.37302 11.542 4.30977C11.5949 4.30765 11.6367 4.30866 11.6697 4.30946L11.6725 4.30953L11.6752 4.30958C11.7965 4.31194 12.0187 4.31626 12.2048 4.1167C12.3948 3.91326 12.393 3.67147 12.3916 3.49485V3.49478L12.3913 1.22418C18.0455 1.53901 22.5562 6.62065 22.5562 12.822V19.7341V21.3363H12.2617C11.7193 21.3363 11.278 21.8149 11.278 22.4032V24.4199C5.80864 24.1156 1.40925 19.3506 1.12744 13.4265ZM12.3916 24.4355H22.5566V22.8288V22.545H12.3916V24.4355Z" fill="black"/>
<path fill-rule="evenodd" clip-rule="evenodd" d="M17.1984 19.9333H11.8759C8.38314 19.9333 5.5415 17.0169 5.5415 13.4322C5.5415 9.84873 8.38314 6.93333 11.8759 6.93333C15.3676 6.93333 18.2082 9.8488 18.2082 13.4322V18.8937C18.2082 19.4669 17.7552 19.9333 17.1984 19.9333ZM17.0827 13.4322C17.0827 10.487 14.7469 8.09082 11.8759 8.09082C9.00375 8.09082 6.66702 10.487 6.66702 13.4322C6.66702 16.3787 9.00375 18.7759 11.8759 18.7759H17.0827V13.4322Z" fill="black"/>
<path fill-rule="evenodd" clip-rule="evenodd" d="M13.8987 15.6H9.85167C9.22134 15.6 8.7085 15.1112 8.7085 14.5103V12.354C8.7085 11.7544 9.22134 11.2667 9.85167 11.2667H13.8987C14.529 11.2667 15.0418 11.7544 15.0418 12.354V14.5103C15.0418 15.1112 14.529 15.6 13.8987 15.6ZM13.7703 12.4773H9.98001V14.3894H13.7703V12.4773Z" fill="black"/>
</svg>
